<svg width="16" height="29" viewBox="0 0 16 29" fill="none" xmlns="http://www.w3.org/2000/svg">
<mask id="path-1-inside-1_314_113" fill="white">
<path fill-rule="evenodd" clip-rule="evenodd" d="M0.770249 27.7702L13.0678 15.4727C13.4073 15.1332 13.4073 14.5826 13.0678 14.243L0.770248 1.94548L2 0.715729L14.2975 13.0132C15.3163 14.032 15.3163 15.6837 14.2975 16.7025L2 29L0.770249 27.7702Z"/>
</mask>
<path fill-rule="evenodd" clip-rule="evenodd" d="M0.770249 27.7702L13.0678 15.4727C13.4073 15.1332 13.4073 14.5826 13.0678 14.243L0.770248 1.94548L2 0.715729L14.2975 13.0132C15.3163 14.032 15.3163 15.6837 14.2975 16.7025L2 29L0.770249 27.7702Z" fill="white"/>
<path d="M0.770249 27.7702L-1.35107 25.6489L-3.47239 27.7702L-1.35107 29.8916L0.770249 27.7702ZM0.770248 1.94548L-1.35107 -0.175839L-3.47239 1.94548L-1.35107 4.0668L0.770248 1.94548ZM2 0.715729L4.12132 -1.40559L2 -3.52691L-0.12132 -1.40559L2 0.715729ZM2 29L-0.12132 31.1213L2 33.2426L4.12132 31.1213L2 29ZM10.9464 13.3514L-1.35107 25.6489L2.89157 29.8916L15.1891 17.5941L10.9464 13.3514ZM10.9464 16.3643C10.1145 15.5323 10.1145 14.1834 10.9464 13.3514L15.1891 17.5941C16.7002 16.0829 16.7002 13.6328 15.1891 12.1217L10.9464 16.3643ZM-1.35107 4.0668L10.9464 16.3643L15.1891 12.1217L2.89157 -0.175839L-1.35107 4.0668ZM-0.12132 -1.40559L-1.35107 -0.175839L2.89157 4.0668L4.12132 2.83705L-0.12132 -1.40559ZM16.4188 10.8919L4.12132 -1.40559L-0.12132 2.83705L12.1762 15.1346L16.4188 10.8919ZM16.4188 18.8238C18.6092 16.6335 18.6092 13.0823 16.4188 10.8919L12.1762 15.1346C12.0234 14.9817 12.0234 14.734 12.1762 14.5812L16.4188 18.8238ZM4.12132 31.1213L16.4188 18.8238L12.1762 14.5812L-0.12132 26.8787L4.12132 31.1213ZM-1.35107 29.8916L-0.12132 31.1213L4.12132 26.8787L2.89157 25.6489L-1.35107 29.8916Z" fill="white" mask="url(#path-1-inside-1_314_113)"/>
</svg>
