<svg width="129" height="28" viewBox="0 0 129 28" fill="none" xmlns="http://www.w3.org/2000/svg">
<path d="M0.285156 27V1.40625H9.25C12.3555 1.40625 14.7109 2.00391 16.3164 3.19922C17.9219 4.38281 18.7246 6.12305 18.7246 8.41992C18.7246 9.67383 18.4023 10.7812 17.7578 11.7422C17.1133 12.6914 16.2168 13.3887 15.0684 13.834C16.3809 14.1621 17.4121 14.8242 18.1621 15.8203C18.9238 16.8164 19.3047 18.0352 19.3047 19.4766C19.3047 21.9375 18.5195 23.8008 16.9492 25.0664C15.3789 26.332 13.1406 26.9766 10.2344 27H0.285156ZM5.55859 15.8555V22.7637H10.0762C11.3184 22.7637 12.2852 22.4707 12.9766 21.8848C13.6797 21.2871 14.0312 20.4668 14.0312 19.4238C14.0312 17.0801 12.8184 15.8906 10.3926 15.8555H5.55859ZM5.55859 12.1289H9.46094C12.1211 12.082 13.4512 11.0215 13.4512 8.94727C13.4512 7.78711 13.1113 6.95508 12.4316 6.45117C11.7637 5.93555 10.7031 5.67773 9.25 5.67773H5.55859V12.1289ZM22.1523 17.3145C22.1523 15.4277 22.5156 13.7461 23.2422 12.2695C23.9688 10.793 25.0117 9.65039 26.3711 8.8418C27.7422 8.0332 29.3301 7.62891 31.1348 7.62891C33.7012 7.62891 35.793 8.41406 37.4102 9.98438C39.0391 11.5547 39.9473 13.6875 40.1348 16.3828L40.1699 17.6836C40.1699 20.6016 39.3555 22.9453 37.7266 24.7148C36.0977 26.4727 33.9121 27.3516 31.1699 27.3516C28.4277 27.3516 26.2363 26.4727 24.5957 24.7148C22.9668 22.957 22.1523 20.5664 22.1523 17.543V17.3145ZM27.2324 17.6836C27.2324 19.4883 27.5723 20.8711 28.252 21.832C28.9316 22.7812 29.9043 23.2559 31.1699 23.2559C32.4004 23.2559 33.3613 22.7871 34.0527 21.8496C34.7441 20.9004 35.0898 19.3887 35.0898 17.3145C35.0898 15.5449 34.7441 14.1738 34.0527 13.2012C33.3613 12.2285 32.3887 11.7422 31.1348 11.7422C29.8926 11.7422 28.9316 12.2285 28.252 13.2012C27.5723 14.1621 27.2324 15.6562 27.2324 17.6836ZM54.6895 25.0664C53.4355 26.5898 51.7012 27.3516 49.4863 27.3516C47.4473 27.3516 45.8887 26.7656 44.8105 25.5938C43.7441 24.4219 43.1992 22.7051 43.1758 20.4434V7.98047H48.2559V20.2676C48.2559 22.248 49.1582 23.2383 50.9629 23.2383C52.6855 23.2383 53.8691 22.6406 54.5137 21.4453V7.98047H59.6113V27H54.8301L54.6895 25.0664ZM68.8047 27H63.707V7.98047H68.8047V27ZM63.4082 3.05859C63.4082 2.29688 63.6602 1.66992 64.1641 1.17773C64.6797 0.685547 65.377 0.439453 66.2559 0.439453C67.123 0.439453 67.8145 0.685547 68.3301 1.17773C68.8457 1.66992 69.1035 2.29688 69.1035 3.05859C69.1035 3.83203 68.8398 4.46484 68.3125 4.95703C67.7969 5.44922 67.1113 5.69531 66.2559 5.69531C65.4004 5.69531 64.709 5.44922 64.1816 4.95703C63.666 4.46484 63.4082 3.83203 63.4082 3.05859ZM78.3672 27H73.2695V0H78.3672V27ZM87.9297 27H82.832V0H87.9297V27ZM91.3398 17.3145C91.3398 15.4277 91.7031 13.7461 92.4297 12.2695C93.1562 10.793 94.1992 9.65039 95.5586 8.8418C96.9297 8.0332 98.5176 7.62891 100.322 7.62891C102.889 7.62891 104.98 8.41406 106.598 9.98438C108.227 11.5547 109.135 13.6875 109.322 16.3828L109.357 17.6836C109.357 20.6016 108.543 22.9453 106.914 24.7148C105.285 26.4727 103.1 27.3516 100.357 27.3516C97.6152 27.3516 95.4238 26.4727 93.7832 24.7148C92.1543 22.957 91.3398 20.5664 91.3398 17.543V17.3145ZM96.4199 17.6836C96.4199 19.4883 96.7598 20.8711 97.4395 21.832C98.1191 22.7812 99.0918 23.2559 100.357 23.2559C101.588 23.2559 102.549 22.7871 103.24 21.8496C103.932 20.9004 104.277 19.3887 104.277 17.3145C104.277 15.5449 103.932 14.1738 103.24 13.2012C102.549 12.2285 101.576 11.7422 100.322 11.7422C99.0801 11.7422 98.1191 12.2285 97.4395 13.2012C96.7598 14.1621 96.4199 15.6562 96.4199 17.6836ZM117.162 7.98047L117.32 10.1777C118.68 8.47852 120.502 7.62891 122.787 7.62891C124.803 7.62891 126.303 8.2207 127.287 9.4043C128.271 10.5879 128.775 12.3574 128.799 14.7129V27H123.719V14.8359C123.719 13.7578 123.484 12.9785 123.016 12.498C122.547 12.0059 121.768 11.7598 120.678 11.7598C119.248 11.7598 118.176 12.3691 117.461 13.5879V27H112.381V7.98047H117.162Z" fill="white"/>
</svg>
