<svg width="53" height="41" viewBox="0 0 53 41" fill="none" xmlns="http://www.w3.org/2000/svg">
<path fill-rule="evenodd" clip-rule="evenodd" d="M31.7822 34.2068C30.33 35.4005 28.4645 36.0588 26.5273 36.0588C24.5928 36.0588 22.7219 35.403 21.2114 34.1709C11.6873 26.412 5.62413 22.2956 5.30878 13.8528C4.97753 4.91812 15.1005 1.65216 21.3068 8.99354C22.5629 10.4767 24.4497 11.3271 26.4849 11.3271C28.5387 11.3271 30.4387 10.4664 31.6974 8.96535C37.7686 1.7418 48.1619 4.81821 47.6875 14.114C47.2635 22.3827 40.9671 26.6528 31.7822 34.2068ZM27.5263 5.91968C27.2666 6.22963 26.8745 6.38588 26.4849 6.38588C26.1033 6.38588 25.7244 6.23475 25.47 5.93505C16.081 -5.16924 -0.497355 0.361121 0.0114442 14.0244C0.416893 24.8981 8.38808 30.2876 17.7744 37.9338C20.2839 39.978 23.4056 41 26.5273 41C29.6569 41 32.7839 39.9728 35.2882 37.9134C44.5711 30.2774 52.4416 24.9238 52.9796 14.3472C53.6951 0.379072 36.8914 -5.23071 27.5263 5.91968Z" fill="#262626"/>
<path fill-rule="evenodd" clip-rule="evenodd" d="M31.7822 34.2068C30.33 35.4005 28.4645 36.0588 26.5273 36.0588C24.5928 36.0588 22.7219 35.403 21.2114 34.1709C11.6873 26.412 5.62413 22.2956 5.30878 13.8528C4.97753 4.91812 15.1005 1.65216 21.3068 8.99354C22.5629 10.4767 24.4497 11.3271 26.4849 11.3271C28.5387 11.3271 30.4387 10.4664 31.6974 8.96535C37.7686 1.7418 48.1619 4.81821 47.6875 14.114C47.2635 22.3827 40.9671 26.6528 31.7822 34.2068ZM27.5263 5.91968C27.2666 6.22963 26.8745 6.38588 26.4849 6.38588C26.1033 6.38588 25.7244 6.23475 25.47 5.93505C16.081 -5.16924 -0.497355 0.361121 0.0114442 14.0244C0.416893 24.8981 8.38808 30.2876 17.7744 37.9338C20.2839 39.978 23.4056 41 26.5273 41C29.6569 41 32.7839 39.9728 35.2882 37.9134C44.5711 30.2774 52.4416 24.9238 52.9796 14.3472C53.6951 0.379072 36.8914 -5.23071 27.5263 5.91968Z" fill="#ECA981"/>
</svg>
